<svg width="28" height="23" viewBox="0 0 28 23" fill="none" xmlns="http://www.w3.org/2000/svg">
<g clip-path="url(#clip0_231_267)">
<path d="M25.8125 1.60162H1.4375C0.918945 1.60162 0.5 2.02057 0.5 2.53912V21.2891C0.5 21.8077 0.918945 22.2266 1.4375 22.2266H25.8125C26.3311 22.2266 26.75 21.8077 26.75 21.2891V2.53912C26.75 2.02057 26.3311 1.60162 25.8125 1.60162ZM24.6406 4.84772V20.1172H2.60938V4.84772L1.80078 4.21783L2.95215 2.73834L4.20605 3.71393H23.0469L24.3008 2.73834L25.4521 4.21783L24.6406 4.84772ZM23.0469 3.711L13.625 11.0352L4.20312 3.711L2.94922 2.73541L1.79785 4.2149L2.60645 4.84479L12.6143 12.626C12.9021 12.8496 13.2561 12.971 13.6206 12.971C13.9851 12.971 14.3391 12.8496 14.627 12.626L24.6406 4.84772L25.4492 4.21783L24.2979 2.73834L23.0469 3.711Z" fill="#2091F9"/>
</g>
<defs>
<clipPath id="clip0_231_267">
<rect width="27" height="22" fill="white" transform="translate(0.5 0.914124)"/>
</clipPath>
</defs>
</svg>
