<svg width="26" height="33" viewBox="0 0 26 33" fill="none" xmlns="http://www.w3.org/2000/svg">
<g clip-path="url(#clip0_231_255)">
<path d="M12.9974 19.5808C16.4902 19.5808 19.3307 16.7403 19.3307 13.2475C19.3307 9.75462 16.4902 6.91412 12.9974 6.91412C9.50456 6.91412 6.66406 9.75462 6.66406 13.2475C6.66406 16.7403 9.50456 19.5808 12.9974 19.5808ZM12.9974 10.0808C14.7438 10.0808 16.1641 11.501 16.1641 13.2475C16.1641 14.9939 14.7438 16.4141 12.9974 16.4141C11.251 16.4141 9.83073 14.9939 9.83073 13.2475C9.83073 11.501 11.251 10.0808 12.9974 10.0808Z" fill="#2091F9"/>
<path d="M11.7485 31.9529C12.0164 32.1443 12.3375 32.2472 12.6668 32.2472C12.9961 32.2472 13.3172 32.1443 13.5851 31.9529C14.0665 31.6125 25.3794 23.4441 25.3335 13.2474C25.3335 6.26336 19.6509 0.58078 12.6668 0.58078C5.68272 0.58078 0.000139393 6.26336 0.000139393 13.2395C-0.0457773 23.4441 11.2671 31.6125 11.7485 31.9529ZM12.6668 3.74745C17.9061 3.74745 22.1668 8.0082 22.1668 13.2554C22.2001 20.2822 15.2191 26.5918 12.6668 28.6612C10.1161 26.5902 3.13356 20.279 3.16681 13.2474C3.16681 8.0082 7.42756 3.74745 12.6668 3.74745Z" fill="#2091F9"/>
</g>
<defs>
<clipPath id="clip0_231_255">
<rect width="26" height="32" fill="white" transform="translate(0 0.414124)"/>
</clipPath>
</defs>
</svg>
